<svg width="99" height="41" viewBox="0 0 99 41" fill="none" xmlns="http://www.w3.org/2000/svg">
<g filter="url(#filter0_ddi_208_6922)">
<rect x="1.5" y="1.5" width="96" height="38" rx="8" fill="#080912"/>
<rect x="2" y="2" width="95" height="37" rx="7.5" stroke="#080912"/>
<g clip-path="url(#clip0_208_6922)">
<path d="M37.1729 16.0586L37.1611 16.0703H26.1855C26.1156 16.0703 26.0199 16.0882 25.9248 16.1113C25.8256 16.1354 25.7124 16.1686 25.6006 16.2041C25.4894 16.2394 25.3765 16.2779 25.2773 16.3145L25.0361 16.4121C24.0784 16.85 23.5607 17.6312 23.1016 18.4189C22.6369 19.2162 22.2355 20.0107 21.5117 20.5693H21.5107C21.3545 20.6908 21.0183 20.8769 20.6641 21.0342C20.4886 21.1121 20.3127 21.1812 20.1572 21.2305C19.9984 21.2808 19.8732 21.3066 19.7939 21.3066H15.6455V16.9434H21.792C22.7595 16.9434 23.4524 16.6203 24.0029 16.1309C24.5466 15.6473 24.9494 15.0019 25.3438 14.3701C26.1405 13.0935 26.9186 11.8512 28.7734 11.7061L28.7725 11.7051L37.1729 11.6465V16.0586Z" fill="url(#paint0_radial_208_6922)" stroke="url(#paint1_linear_208_6922)" stroke-width="0.290909"/>
<path d="M28.1691 19.5001L29.0109 27.3546H23.2258L24.0676 19.5001H28.1691Z" fill="url(#paint2_radial_208_6922)" stroke="url(#paint3_linear_208_6922)" stroke-width="0.290909"/>
</g>
<mask id="path-5-inside-1_208_6922" fill="white">
<path d="M41.6017 22.7333V23.375H34.5617C34.7633 24.8417 35.68 25.685 37.0917 25.685C38.1 25.685 38.8517 25.245 39.1633 24.475H41.4733C41.0883 26.455 39.31 27.775 36.9817 27.775C34.14 27.775 32.215 25.7583 32.215 22.7333C32.215 19.7083 34.1033 17.6917 36.9083 17.6917C39.7133 17.6917 41.6017 19.7083 41.6017 22.7333ZM36.9083 19.7817C35.625 19.7817 34.8 20.57 34.58 21.945H39.2183C38.9983 20.57 38.1733 19.7817 36.9083 19.7817ZM50.3315 13.8233H52.8065V27.5H50.3315V26.29H50.1665C49.6165 27.1883 48.6815 27.775 47.3982 27.775C45.0148 27.775 43.3282 25.7583 43.3282 22.7333C43.3098 19.7083 44.9965 17.6917 47.3982 17.6917C48.6448 17.6917 49.5798 18.2417 50.1115 19.1033H50.3315V13.8233ZM48.0765 25.4467C49.4332 25.4467 50.3132 24.365 50.3132 22.7333C50.3132 21.1017 49.4332 20.02 48.0765 20.02C46.7565 20.02 45.8582 21.1017 45.8582 22.7333C45.8582 24.365 46.7565 25.4467 48.0765 25.4467ZM64.4904 22.7333V23.375H57.4504C57.6521 24.8417 58.5687 25.685 59.9804 25.685C60.9887 25.685 61.7404 25.245 62.0521 24.475H64.3621C63.9771 26.455 62.1987 27.775 59.8704 27.775C57.0287 27.775 55.1037 25.7583 55.1037 22.7333C55.1037 19.7083 56.9921 17.6917 59.7971 17.6917C62.6021 17.6917 64.4904 19.7083 64.4904 22.7333ZM59.7971 19.7817C58.5137 19.7817 57.6887 20.57 57.4687 21.945H62.1071C61.8871 20.57 61.0621 19.7817 59.7971 19.7817ZM71.2935 17.9667H72.0268V20.5883H70.5968C69.4052 20.5883 69.0752 21.1383 69.0752 22.6417V27.5H66.6002V17.9667H68.9285V19.5983H69.1302C69.3868 18.6083 70.2302 17.9667 71.2935 17.9667ZM77.7192 17.6917C80.2492 17.6917 81.6425 19.1033 81.6425 21.56V27.5H79.2959V26.1617H79.1125C78.5075 27.1883 77.4809 27.775 76.0875 27.775C74.3092 27.775 73.2459 26.8583 73.2459 25.19C73.2459 23.0267 75.0425 21.9633 79.1675 21.9083V21.4683C79.1675 20.405 78.5625 19.8 77.5359 19.8C76.6375 19.8 75.9959 20.2583 75.9225 21.12H73.4292C73.7409 18.865 75.4092 17.6917 77.7192 17.6917ZM76.9859 25.8133C78.3609 25.8133 79.1675 24.8967 79.1675 23.3383V23.2283C76.7109 23.265 75.6109 23.76 75.6109 24.7683C75.6109 25.4467 76.1059 25.8133 76.9859 25.8133Z"/>
</mask>
<path d="M41.6017 22.7333V23.375H34.5617C34.7633 24.8417 35.68 25.685 37.0917 25.685C38.1 25.685 38.8517 25.245 39.1633 24.475H41.4733C41.0883 26.455 39.31 27.775 36.9817 27.775C34.14 27.775 32.215 25.7583 32.215 22.7333C32.215 19.7083 34.1033 17.6917 36.9083 17.6917C39.7133 17.6917 41.6017 19.7083 41.6017 22.7333ZM36.9083 19.7817C35.625 19.7817 34.8 20.57 34.58 21.945H39.2183C38.9983 20.57 38.1733 19.7817 36.9083 19.7817ZM50.3315 13.8233H52.8065V27.5H50.3315V26.29H50.1665C49.6165 27.1883 48.6815 27.775 47.3982 27.775C45.0148 27.775 43.3282 25.7583 43.3282 22.7333C43.3098 19.7083 44.9965 17.6917 47.3982 17.6917C48.6448 17.6917 49.5798 18.2417 50.1115 19.1033H50.3315V13.8233ZM48.0765 25.4467C49.4332 25.4467 50.3132 24.365 50.3132 22.7333C50.3132 21.1017 49.4332 20.02 48.0765 20.02C46.7565 20.02 45.8582 21.1017 45.8582 22.7333C45.8582 24.365 46.7565 25.4467 48.0765 25.4467ZM64.4904 22.7333V23.375H57.4504C57.6521 24.8417 58.5687 25.685 59.9804 25.685C60.9887 25.685 61.7404 25.245 62.0521 24.475H64.3621C63.9771 26.455 62.1987 27.775 59.8704 27.775C57.0287 27.775 55.1037 25.7583 55.1037 22.7333C55.1037 19.7083 56.9921 17.6917 59.7971 17.6917C62.6021 17.6917 64.4904 19.7083 64.4904 22.7333ZM59.7971 19.7817C58.5137 19.7817 57.6887 20.57 57.4687 21.945H62.1071C61.8871 20.57 61.0621 19.7817 59.7971 19.7817ZM71.2935 17.9667H72.0268V20.5883H70.5968C69.4052 20.5883 69.0752 21.1383 69.0752 22.6417V27.5H66.6002V17.9667H68.9285V19.5983H69.1302C69.3868 18.6083 70.2302 17.9667 71.2935 17.9667ZM77.7192 17.6917C80.2492 17.6917 81.6425 19.1033 81.6425 21.56V27.5H79.2959V26.1617H79.1125C78.5075 27.1883 77.4809 27.775 76.0875 27.775C74.3092 27.775 73.2459 26.8583 73.2459 25.19C73.2459 23.0267 75.0425 21.9633 79.1675 21.9083V21.4683C79.1675 20.405 78.5625 19.8 77.5359 19.8C76.6375 19.8 75.9959 20.2583 75.9225 21.12H73.4292C73.7409 18.865 75.4092 17.6917 77.7192 17.6917ZM76.9859 25.8133C78.3609 25.8133 79.1675 24.8967 79.1675 23.3383V23.2283C76.7109 23.265 75.6109 23.76 75.6109 24.7683C75.6109 25.4467 76.1059 25.8133 76.9859 25.8133Z" fill="url(#paint4_radial_208_6922)"/>
<path d="M41.6017 23.375V23.472H41.6986V23.375H41.6017ZM34.5617 23.375V23.278H34.4505L34.4656 23.3882L34.5617 23.375ZM39.1633 24.475V24.378H39.098L39.0734 24.4386L39.1633 24.475ZM41.4733 24.475L41.5685 24.4935L41.591 24.378H41.4733V24.475ZM34.58 21.945L34.4842 21.9297L34.4663 22.042H34.58V21.945ZM39.2183 21.945V22.042H39.3321L39.3141 21.9297L39.2183 21.945ZM41.6017 22.7333H41.5047V23.375H41.6017H41.6986V22.7333H41.6017ZM41.6017 23.375V23.278H34.5617V23.375V23.472H41.6017V23.375ZM34.5617 23.375L34.4656 23.3882C34.5688 24.1386 34.8563 24.7388 35.3075 25.1515C35.7591 25.5647 36.3659 25.782 37.0917 25.782V25.685V25.588C36.4058 25.588 35.8484 25.3836 35.4384 25.0085C35.0278 24.6329 34.7562 24.0781 34.6577 23.3618L34.5617 23.375ZM37.0917 25.685V25.782C38.129 25.782 38.9232 25.3268 39.2532 24.5114L39.1633 24.475L39.0734 24.4386C38.7802 25.1632 38.071 25.588 37.0917 25.588V25.685ZM39.1633 24.475V24.572H41.4733V24.475V24.378H39.1633V24.475ZM41.4733 24.475L41.3781 24.4565C41.0037 26.3823 39.273 27.678 36.9817 27.678V27.775V27.872C39.347 27.872 41.173 26.5277 41.5685 24.4935L41.4733 24.475ZM36.9817 27.775V27.678C35.5847 27.678 34.4194 27.1829 33.6031 26.3218C32.7863 25.4603 32.312 24.2251 32.312 22.7333H32.215H32.118C32.118 24.2665 32.6062 25.5522 33.4623 26.4553C34.3189 27.3588 35.537 27.872 36.9817 27.872V27.775ZM32.215 22.7333H32.312C32.312 21.241 32.7775 20.0056 33.5807 19.1443C34.3834 18.2835 35.5301 17.7886 36.9083 17.7886V17.6917V17.5947C35.4815 17.5947 34.2816 18.1082 33.4389 19.012C32.5967 19.9152 32.118 21.2006 32.118 22.7333H32.215ZM36.9083 17.6917V17.7886C38.2865 17.7886 39.4333 18.2835 40.236 19.1443C41.0392 20.0056 41.5047 21.241 41.5047 22.7333H41.6017H41.6986C41.6986 21.2006 41.22 19.9152 40.3778 19.012C39.535 18.1082 38.3351 17.5947 36.9083 17.5947V17.6917ZM36.9083 19.7817V19.6847C36.2458 19.6847 35.6938 19.8887 35.2792 20.2769C34.8654 20.6642 34.5967 21.2268 34.4842 21.9297L34.58 21.945L34.6758 21.9603C34.7833 21.2882 35.0371 20.7692 35.4117 20.4185C35.7853 20.0688 36.2875 19.8786 36.9083 19.8786V19.7817ZM34.58 21.945V22.042H39.2183V21.945V21.848H34.58V21.945ZM39.2183 21.945L39.3141 21.9297C39.2016 21.2268 38.9329 20.6643 38.5217 20.2771C38.1094 19.889 37.5621 19.6847 36.9083 19.6847V19.7817V19.8786C37.5196 19.8786 38.0172 20.0685 38.3887 20.4183C38.7612 20.769 39.015 21.2882 39.1226 21.9603L39.2183 21.945ZM50.3315 13.8233V13.7264H50.2345V13.8233H50.3315ZM52.8065 13.8233H52.9035V13.7264H52.8065V13.8233ZM52.8065 27.5V27.597H52.9035V27.5H52.8065ZM50.3315 27.5H50.2345V27.597H50.3315V27.5ZM50.3315 26.29H50.4285V26.193H50.3315V26.29ZM50.1665 26.29V26.193H50.1122L50.0838 26.2394L50.1665 26.29ZM43.3282 22.7333H43.4251L43.4251 22.7327L43.3282 22.7333ZM50.1115 19.1033L50.029 19.1543L50.0574 19.2003H50.1115V19.1033ZM50.3315 19.1033V19.2003H50.4285V19.1033H50.3315ZM50.3315 13.8233V13.9203H52.8065V13.8233V13.7264H50.3315V13.8233ZM52.8065 13.8233H52.7095V27.5H52.8065H52.9035V13.8233H52.8065ZM52.8065 27.5V27.403H50.3315V27.5V27.597H52.8065V27.5ZM50.3315 27.5H50.4285V26.29H50.3315H50.2345V27.5H50.3315ZM50.3315 26.29V26.193H50.1665V26.29V26.387H50.3315V26.29ZM50.1665 26.29L50.0838 26.2394C49.5515 27.1088 48.6478 27.678 47.3982 27.678V27.775V27.872C48.7151 27.872 49.6815 27.2678 50.2492 26.3406L50.1665 26.29ZM47.3982 27.775V27.678C46.2361 27.678 45.246 27.1874 44.5445 26.3273C43.8419 25.4657 43.4251 24.2284 43.4251 22.7333H43.3282H43.2312C43.2312 24.2632 43.6577 25.5468 44.3943 26.4498C45.1319 27.3543 46.1769 27.872 47.3982 27.872V27.775ZM43.3282 22.7333L43.4251 22.7327C43.4161 21.2378 43.8283 20.0007 44.5308 19.1394C45.2321 18.2795 46.2267 17.7886 47.3982 17.7886V17.6917V17.5947C46.1679 17.5947 45.1184 18.1122 44.3805 19.0168C43.6438 19.9201 43.2219 21.2039 43.2312 22.7339L43.3282 22.7333ZM47.3982 17.6917V17.7886C48.6135 17.7886 49.5162 18.3232 50.029 19.1543L50.1115 19.1033L50.194 19.0524C49.6435 18.1602 48.6761 17.5947 47.3982 17.5947V17.6917ZM50.1115 19.1033V19.2003H50.3315V19.1033V19.0064H50.1115V19.1033ZM50.3315 19.1033H50.4285V13.8233H50.3315H50.2345V19.1033H50.3315ZM48.0765 25.4467V25.5436C48.7828 25.5436 49.3699 25.261 49.7785 24.7634C50.1856 24.2677 50.4101 23.5658 50.4101 22.7333H50.3132H50.2162C50.2162 23.5325 50.0007 24.1873 49.6286 24.6403C49.2581 25.0915 48.7268 25.3497 48.0765 25.3497V25.4467ZM50.3132 22.7333H50.4101C50.4101 21.9009 50.1856 21.199 49.7785 20.7032C49.3699 20.2057 48.7828 19.923 48.0765 19.923V20.02V20.117C48.7268 20.117 49.2581 20.3751 49.6286 20.8263C50.0007 21.2794 50.2162 21.9341 50.2162 22.7333H50.3132ZM48.0765 20.02V19.923C47.3878 19.923 46.8056 20.2062 46.3974 20.7032C45.9905 21.1987 45.7612 21.9004 45.7612 22.7333H45.8582H45.9551C45.9551 21.9346 46.175 21.2796 46.5473 20.8263C46.9182 20.3746 47.4452 20.117 48.0765 20.117V20.02ZM45.8582 22.7333H45.7612C45.7612 23.5663 45.9905 24.268 46.3974 24.7634C46.8056 25.2604 47.3878 25.5436 48.0765 25.5436V25.4467V25.3497C47.4452 25.3497 46.9182 25.0921 46.5473 24.6403C46.175 24.187 45.9551 23.532 45.9551 22.7333H45.8582ZM64.4904 23.375V23.472H64.5874V23.375H64.4904ZM57.4504 23.375V23.278H57.3392L57.3543 23.3882L57.4504 23.375ZM62.0521 24.475V24.378H61.9867L61.9622 24.4386L62.0521 24.475ZM64.3621 24.475L64.4573 24.4935L64.4797 24.378H64.3621V24.475ZM57.4687 21.945L57.373 21.9297L57.355 22.042H57.4687V21.945ZM62.1071 21.945V22.042H62.2208L62.2028 21.9297L62.1071 21.945ZM64.4904 22.7333H64.3934V23.375H64.4904H64.5874V22.7333H64.4904ZM64.4904 23.375V23.278H57.4504V23.375V23.472H64.4904V23.375ZM57.4504 23.375L57.3543 23.3882C57.4575 24.1386 57.7451 24.7388 58.1962 25.1515C58.6478 25.5647 59.2546 25.782 59.9804 25.782V25.685V25.588C59.2945 25.588 58.7371 25.3836 58.3271 25.0085C57.9166 24.6329 57.645 24.0781 57.5465 23.3618L57.4504 23.375ZM59.9804 25.685V25.782C61.0178 25.782 61.8119 25.3268 62.142 24.5114L62.0521 24.475L61.9622 24.4386C61.6689 25.1632 60.9597 25.588 59.9804 25.588V25.685ZM62.0521 24.475V24.572H64.3621V24.475V24.378H62.0521V24.475ZM64.3621 24.475L64.2669 24.4565C63.8924 26.3823 62.1617 27.678 59.8704 27.678V27.775V27.872C62.2358 27.872 64.0617 26.5277 64.4573 24.4935L64.3621 24.475ZM59.8704 27.775V27.678C58.4734 27.678 57.3082 27.1829 56.4918 26.3218C55.6751 25.4603 55.2007 24.2251 55.2007 22.7333H55.1037H55.0068C55.0068 24.2665 55.4949 25.5522 56.3511 26.4553C57.2077 27.3588 58.4257 27.872 59.8704 27.872V27.775ZM55.1037 22.7333H55.2007C55.2007 21.241 55.6662 20.0056 56.4694 19.1443C57.2721 18.2835 58.4189 17.7886 59.7971 17.7886V17.6917V17.5947C58.3703 17.5947 57.1704 18.1082 56.3276 19.012C55.4854 19.9152 55.0068 21.2006 55.0068 22.7333H55.1037ZM59.7971 17.6917V17.7886C61.1753 17.7886 62.322 18.2835 63.1247 19.1443C63.9279 20.0056 64.3934 21.241 64.3934 22.7333H64.4904H64.5874C64.5874 21.2006 64.1087 19.9152 63.2665 19.012C62.4238 18.1082 61.2239 17.5947 59.7971 17.5947V17.6917ZM59.7971 19.7817V19.6847C59.1345 19.6847 58.5826 19.8887 58.1679 20.2769C57.7542 20.6642 57.4855 21.2268 57.373 21.9297L57.4687 21.945L57.5645 21.9603C57.672 21.2882 57.9258 20.7692 58.3004 20.4185C58.6741 20.0688 59.1763 19.8786 59.7971 19.8786V19.7817ZM57.4687 21.945V22.042H62.1071V21.945V21.848H57.4687V21.945ZM62.1071 21.945L62.2028 21.9297C62.0904 21.2268 61.8217 20.6643 61.4104 20.2771C60.9982 19.889 60.4508 19.6847 59.7971 19.6847V19.7817V19.8786C60.4084 19.8786 60.906 20.0685 61.2775 20.4183C61.65 20.769 61.9038 21.2882 62.0113 21.9603L62.1071 21.945ZM72.0268 17.9667H72.1238V17.8697H72.0268V17.9667ZM72.0268 20.5883V20.6853H72.1238V20.5883H72.0268ZM69.0752 27.5V27.597H69.1721V27.5H69.0752ZM66.6002 27.5H66.5032V27.597H66.6002V27.5ZM66.6002 17.9667V17.8697H66.5032V17.9667H66.6002ZM68.9285 17.9667H69.0255V17.8697H68.9285V17.9667ZM68.9285 19.5983H68.8315V19.6953H68.9285V19.5983ZM69.1302 19.5983V19.6953H69.2052L69.224 19.6227L69.1302 19.5983ZM71.2935 17.9667V18.0636H72.0268V17.9667V17.8697H71.2935V17.9667ZM72.0268 17.9667H71.9299V20.5883H72.0268H72.1238V17.9667H72.0268ZM72.0268 20.5883V20.4914H70.5968V20.5883V20.6853H72.0268V20.5883ZM70.5968 20.5883V20.4914C69.9881 20.4914 69.5683 20.632 69.3101 20.995C69.0592 21.3478 68.9782 21.8897 68.9782 22.6417H69.0752H69.1721C69.1721 21.8903 69.2561 21.4055 69.4681 21.1075C69.6728 20.8197 70.0139 20.6853 70.5968 20.6853V20.5883ZM69.0752 22.6417H68.9782V27.5H69.0752H69.1721V22.6417H69.0752ZM69.0752 27.5V27.403H66.6002V27.5V27.597H69.0752V27.5ZM66.6002 27.5H66.6971V17.9667H66.6002H66.5032V27.5H66.6002ZM66.6002 17.9667V18.0636H68.9285V17.9667V17.8697H66.6002V17.9667ZM68.9285 17.9667H68.8315V19.5983H68.9285H69.0255V17.9667H68.9285ZM68.9285 19.5983V19.6953H69.1302V19.5983V19.5014H68.9285V19.5983ZM69.1302 19.5983L69.224 19.6227C69.4692 18.6772 70.2725 18.0636 71.2935 18.0636V17.9667V17.8697C70.1878 17.8697 69.3045 18.5395 69.0363 19.574L69.1302 19.5983ZM81.6425 27.5V27.597H81.7395V27.5H81.6425ZM79.2959 27.5H79.1989V27.597H79.2959V27.5ZM79.2959 26.1617H79.3928V26.0647H79.2959V26.1617ZM79.1125 26.1617V26.0647H79.0571L79.029 26.1124L79.1125 26.1617ZM79.1675 21.9083L79.1688 22.0053L79.2645 22.004V21.9083H79.1675ZM75.9225 21.12V21.217H76.0116L76.0191 21.1282L75.9225 21.12ZM73.4292 21.12L73.3331 21.1067L73.3179 21.217H73.4292V21.12ZM79.1675 23.2283H79.2645V23.1299L79.1661 23.1314L79.1675 23.2283ZM77.7192 17.6917V17.7886C78.9665 17.7886 79.9198 18.1363 80.5613 18.7734C81.2027 19.4103 81.5456 20.3497 81.5456 21.56H81.6425H81.7395C81.7395 20.3136 81.3857 19.3188 80.6979 18.6358C80.0102 17.9528 79.0018 17.5947 77.7192 17.5947V17.6917ZM81.6425 21.56H81.5456V27.5H81.6425H81.7395V21.56H81.6425ZM81.6425 27.5V27.403H79.2959V27.5V27.597H81.6425V27.5ZM79.2959 27.5H79.3928V26.1617H79.2959H79.1989V27.5H79.2959ZM79.2959 26.1617V26.0647H79.1125V26.1617V26.2586H79.2959V26.1617ZM79.1125 26.1617L79.029 26.1124C78.443 27.1068 77.4498 27.678 76.0875 27.678V27.775V27.872C77.5119 27.872 78.572 27.2699 79.1961 26.2109L79.1125 26.1617ZM76.0875 27.775V27.678C75.214 27.678 74.5296 27.4529 74.0646 27.0359C73.6011 26.6203 73.3428 26.0027 73.3428 25.19H73.2459H73.1489C73.1489 26.0456 73.4223 26.7205 73.9351 27.1803C74.4463 27.6387 75.1827 27.872 76.0875 27.872V27.775ZM73.2459 25.19H73.3428C73.3428 24.6628 73.4522 24.2081 73.6751 23.8207C73.8979 23.4334 74.2376 23.1075 74.7074 22.843C75.6505 22.3121 77.1108 22.0327 79.1688 22.0053L79.1675 21.9083L79.1662 21.8114C77.0992 21.8389 75.5987 22.1187 74.6123 22.674C74.1172 22.9527 73.7499 23.3017 73.507 23.724C73.2641 24.146 73.1489 24.6355 73.1489 25.19H73.2459ZM79.1675 21.9083H79.2645V21.4683H79.1675H79.0706V21.9083H79.1675ZM79.1675 21.4683H79.2645C79.2645 20.9185 79.1078 20.4743 78.8058 20.1674C78.5036 19.8603 78.0682 19.703 77.5359 19.703V19.8V19.897C78.0302 19.897 78.4106 20.0422 78.6676 20.3034C78.9248 20.5648 79.0706 20.9548 79.0706 21.4683H79.1675ZM77.5359 19.8V19.703C77.071 19.703 76.663 19.8216 76.3598 20.0607C76.0548 20.3012 75.8646 20.6569 75.8259 21.1118L75.9225 21.12L76.0191 21.1282C76.0538 20.7215 76.2211 20.4171 76.4799 20.213C76.7404 20.0075 77.1024 19.897 77.5359 19.897V19.8ZM75.9225 21.12V21.023H73.4292V21.12V21.217H75.9225V21.12ZM73.4292 21.12L73.5253 21.1333C73.678 20.0281 74.1615 19.195 74.8841 18.637C75.608 18.0779 76.5801 17.7886 77.7192 17.7886V17.6917V17.5947C76.5483 17.5947 75.5312 17.8921 74.7655 18.4835C73.9985 19.0758 73.4921 19.9569 73.3331 21.1067L73.4292 21.12ZM76.9859 25.8133V25.9103C77.696 25.9103 78.27 25.6728 78.6651 25.2243C79.0587 24.7775 79.2645 24.1333 79.2645 23.3383H79.1675H79.0706C79.0706 24.1017 78.873 24.695 78.5196 25.0961C78.1676 25.4956 77.6507 25.7164 76.9859 25.7164V25.8133ZM79.1675 23.3383H79.2645V23.2283H79.1675H79.0706V23.3383H79.1675ZM79.1675 23.2283L79.1661 23.1314C77.9347 23.1498 77.0295 23.2827 76.4291 23.5451C76.1276 23.6769 75.8979 23.8434 75.7435 24.0493C75.5883 24.2565 75.5139 24.4973 75.5139 24.7683H75.6109H75.7078C75.7078 24.5352 75.771 24.336 75.8987 24.1656C76.0274 23.994 76.2262 23.8454 76.5068 23.7228C77.0705 23.4765 77.9437 23.3436 79.169 23.3253L79.1675 23.2283ZM75.6109 24.7683H75.5139C75.5139 25.1338 75.6488 25.4255 75.9099 25.6226C76.1669 25.8166 76.5345 25.9103 76.9859 25.9103V25.8133V25.7164C76.5572 25.7164 76.2373 25.6268 76.0268 25.4678C75.8204 25.312 75.7078 25.0812 75.7078 24.7683H75.6109Z" fill="url(#paint5_linear_208_6922)" mask="url(#path-5-inside-1_208_6922)"/>
</g>
<defs>
<filter id="filter0_ddi_208_6922" x="0" y="0" width="99" height="46.5" filterUnits="userSpaceOnUse" color-interpolation-filters="sRGB">
<feFlood flood-opacity="0" result="BackgroundImageFix"/>
<feColorMatrix in="SourceAlpha" type="matrix" values="0 0 0 0 0 0 0 0 0 0 0 0 0 0 0 0 0 0 127 0" result="hardAlpha"/>
<feMorphology radius="1.5" operator="dilate" in="SourceAlpha" result="effect1_dropShadow_208_6922"/>
<feOffset/>
<feComposite in2="hardAlpha" operator="out"/>
<feColorMatrix type="matrix" values="0 0 0 0 0.745098 0 0 0 0 0.792157 0 0 0 0 0.917647 0 0 0 0.29 0"/>
<feBlend mode="normal" in2="BackgroundImageFix" result="effect1_dropShadow_208_6922"/>
<feColorMatrix in="SourceAlpha" type="matrix" values="0 0 0 0 0 0 0 0 0 0 0 0 0 0 0 0 0 0 127 0" result="hardAlpha"/>
<feMorphology radius="8" operator="erode" in="SourceAlpha" result="effect2_dropShadow_208_6922"/>
<feOffset dy="9"/>
<feGaussianBlur stdDeviation="3"/>
<feComposite in2="hardAlpha" operator="out"/>
<feColorMatrix type="matrix" values="0 0 0 0 0.113725 0 0 0 0 0.117647 0 0 0 0 0.254902 0 0 0 0.7 0"/>
<feBlend mode="normal" in2="effect1_dropShadow_208_6922" result="effect2_dropShadow_208_6922"/>
<feBlend mode="normal" in="SourceGraphic" in2="effect2_dropShadow_208_6922" result="shape"/>
<feColorMatrix in="SourceAlpha" type="matrix" values="0 0 0 0 0 0 0 0 0 0 0 0 0 0 0 0 0 0 127 0" result="hardAlpha"/>
<feOffset dy="4"/>
<feGaussianBlur stdDeviation="5"/>
<feComposite in2="hardAlpha" operator="arithmetic" k2="-1" k3="1"/>
<feColorMatrix type="matrix" values="0 0 0 0 1 0 0 0 0 1 0 0 0 0 1 0 0 0 0.18 0"/>
<feBlend mode="normal" in2="shape" result="effect3_innerShadow_208_6922"/>
</filter>
<radialGradient id="paint0_radial_208_6922" cx="0" cy="0" r="1" gradientUnits="userSpaceOnUse" gradientTransform="translate(26.4091 11.0261) rotate(90) scale(17.2975 37.9221)">
<stop stop-color="white"/>
<stop offset="1" stop-color="white" stop-opacity="0"/>
</radialGradient>
<linearGradient id="paint1_linear_208_6922" x1="26.4091" y1="11.5" x2="26.4091" y2="21.452" gradientUnits="userSpaceOnUse">
<stop stop-color="white" stop-opacity="0.8"/>
<stop offset="0.780022" stop-color="white" stop-opacity="0"/>
</linearGradient>
<radialGradient id="paint2_radial_208_6922" cx="0" cy="0" r="1" gradientUnits="userSpaceOnUse" gradientTransform="translate(26.1182 18.9667) rotate(90) scale(14.1576 10.6182)">
<stop stop-color="white"/>
<stop offset="1" stop-color="white" stop-opacity="0"/>
</radialGradient>
<linearGradient id="paint3_linear_208_6922" x1="26.1182" y1="19.3546" x2="26.1182" y2="27.5001" gradientUnits="userSpaceOnUse">
<stop stop-color="white" stop-opacity="0.8"/>
<stop offset="0.780022" stop-color="white" stop-opacity="0"/>
</linearGradient>
<radialGradient id="paint4_radial_208_6922" cx="0" cy="0" r="1" gradientUnits="userSpaceOnUse" gradientTransform="translate(58.8333 11.6905) rotate(90) scale(29.5476 95.0159)">
<stop offset="0.257511" stop-color="white"/>
<stop offset="1" stop-color="white" stop-opacity="0"/>
</radialGradient>
<linearGradient id="paint5_linear_208_6922" x1="58.8333" y1="12.5" x2="58.8333" y2="29.5" gradientUnits="userSpaceOnUse">
<stop stop-color="white" stop-opacity="0.8"/>
<stop offset="0.780022" stop-color="white" stop-opacity="0"/>
</linearGradient>
<clipPath id="clip0_208_6922">
<rect width="21.9259" height="16" fill="white" transform="translate(15.5 11.5)"/>
</clipPath>
</defs>
</svg>
