<svg width="204" height="55" viewBox="0 0 204 55" fill="none" xmlns="http://www.w3.org/2000/svg">
<g clip-path="url(#clip0_48_5815)">
<path d="M81.305 40.7V42.625H60.185C60.79 47.025 63.54 49.555 67.775 49.555C70.8 49.555 73.055 48.235 73.99 45.925H80.92C79.765 51.865 74.43 55.825 67.445 55.825C58.92 55.825 53.145 49.775 53.145 40.7C53.145 31.625 58.81 25.575 67.225 25.575C75.64 25.575 81.305 31.625 81.305 40.7ZM67.225 31.845C63.375 31.845 60.9 34.21 60.24 38.335H74.155C73.495 34.21 71.02 31.845 67.225 31.845ZM107.494 13.97H114.919V55H107.494V51.37H106.999C105.349 54.065 102.544 55.825 98.6945 55.825C91.5445 55.825 86.4845 49.775 86.4845 40.7C86.4295 31.625 91.4895 25.575 98.6945 25.575C102.434 25.575 105.239 27.225 106.834 29.81H107.494V13.97ZM100.729 48.84C104.799 48.84 107.439 45.595 107.439 40.7C107.439 35.805 104.799 32.56 100.729 32.56C96.7695 32.56 94.0745 35.805 94.0745 40.7C94.0745 45.595 96.7695 48.84 100.729 48.84ZM149.971 40.7V42.625H128.851C129.456 47.025 132.206 49.555 136.441 49.555C139.466 49.555 141.721 48.235 142.656 45.925H149.586C148.431 51.865 143.096 55.825 136.111 55.825C127.586 55.825 121.811 49.775 121.811 40.7C121.811 31.625 127.476 25.575 135.891 25.575C144.306 25.575 149.971 31.625 149.971 40.7ZM135.891 31.845C132.041 31.845 129.566 34.21 128.906 38.335H142.821C142.161 34.21 139.686 31.845 135.891 31.845ZM170.381 26.4H172.581V34.265H168.291C164.716 34.265 163.726 35.915 163.726 40.425V55H156.301V26.4H163.286V31.295H163.891C164.661 28.325 167.191 26.4 170.381 26.4ZM189.658 25.575C197.248 25.575 201.428 29.81 201.428 37.18V55H194.388V50.985H193.838C192.023 54.065 188.943 55.825 184.763 55.825C179.428 55.825 176.238 53.075 176.238 48.07C176.238 41.58 181.628 38.39 194.003 38.225V36.905C194.003 33.715 192.188 31.9 189.108 31.9C186.413 31.9 184.488 33.275 184.268 35.86H176.788C177.723 29.095 182.728 25.575 189.658 25.575ZM187.458 49.94C191.583 49.94 194.003 47.19 194.003 42.515V42.185C186.633 42.295 183.333 43.78 183.333 46.805C183.333 48.84 184.818 49.94 187.458 49.94Z" fill="black"/>
<path d="M75 0V15.88L74.67 16.21H36.73C36.03 16.21 33.72 17 32.99 17.34C26.71 20.21 26.14 27.58 20.97 31.57C19.8 32.48 16.17 34.21 14.76 34.21H0V18.21H21.63C34.42 18.21 32.28 1.25 45.59 0.21L75 0Z" fill="black"/>
<path d="M28.9043 27.8935C28.9587 27.3853 29.3875 27 29.8986 27H43.1014C43.6125 27 44.0413 27.3853 44.0957 27.8935L46.8814 53.8935C46.9448 54.4845 46.4816 55 45.8871 55H27.1129C26.5184 55 26.0552 54.4845 26.1186 53.8935L28.9043 27.8935Z" fill="black"/>
</g>
<defs>
<clipPath id="clip0_48_5815">
<rect width="204" height="55" fill="white"/>
</clipPath>
</defs>
</svg>
